#!OML:ASF I:\Actors\actors\Patient Classification 2\Patient 1\Session 1\actor1.ASF
:FULLY-SPECIFIED
:DEGREES
848
root -1.00626 17.8247 6.55115 -7.25006 -4.93907 -3.53084
lowerback 5.37967 1.22648 1.02841
upperback -2.31697 1.79861 1.59811
thorax -5.44362 0.88348 0.90182
lowerneck -11.2781 -0.665516 1.30909
upperneck 25.0843 -1.34355 0.378118
head 9.79183 -0.461858 -0.248449
rclavicle 6.41081e-015 3.27995e-015
rhumerus -58.7859 -12.2467 -71.9287
rradius 44.6138
rwrist 3.95946
rhand -4.78111 -23.4903
rfingers 7.12502
rthumb 21.0037 -52.373
lclavicle 6.41081e-015 3.27995e-015
lhumerus -53.8404 13.7664 75.2918
lradius 45.8113
lwrist 15.9619
lhand -11.0859 -26.6978
lfingers 7.12502
lthumb 14.9377 2.74354
rfemur 24.7131 2.03209 19.3016
rtibia -10.335
rfoot -18.3687 -14.4711
rtoes 2.06575
lfemur 29.4932 -13.3012 -15.1653
ltibia -17.0384
lfoot -7.98374 16.2674
ltoes -19.0764
849
root -1.00584 17.8259 6.55592 -7.21689 -4.94512 -3.49593
lowerback 5.33896 1.23085 0.992033
upperback -2.27746 1.80038 1.60598
thorax -5.38037 0.886035 0.931416
lowerneck -11.3552 -0.727183 1.05537
upperneck 24.981 -1.43373 0.605282
head 9.77316 -0.502753 -0.136758
rclavicle 6.49777e-015 1.11816e-014
rhumerus -58.254 -12.2374 -71.0287
rradius 44.4272
rwrist 5.40801
rhand -5.84396 -23.7932
rfingers 7.12502
rthumb 19.9824 -52.7858
lclavicle 6.49777e-015 1.11816e-014
lhumerus -53.441 13.813 74.4988
lradius 45.5935
lwrist 15.5124
lhand -11.2859 -26.3555
lfingers 7.12502
lthumb 14.7451 3.10006
rfemur 24.6412 1.9446 19.2341
rtibia -10.2627
rfoot -18.2271 -14.4905
rtoes 1.62575
lfemur 29.4848 -13.3666 -15.2406
ltibia -17.0457
lfoot -8.03215 16.3732
ltoes -18.8638
850
root -1.00664 17.8294 6.55941 -7.13565 -5.01369 -3.64442
lowerback 5.27798 1.23554 1.13359
upperback -2.25492 1.81763 1.65147
thorax -5.31942 0.890743 0.899125
lowerneck -11.4821 -0.76469 0.987288
upperneck 24.9791 -1.48824 0.660043
head 9.79774 -0.52794 -0.113158
rclavicle 9.88954e-015 -2.33572e-015
rhumerus -57.8328 -12.4602 -70.0967
rradius 44.2838
rwrist 6.30707
rhand -6.9983 -24.1211
rfingers 7.12502
rthumb 18.8725 -53.2256
lclavicle 9.88954e-015 -2.33572e-015
lhumerus -53.1146 14.0067 73.6674
lradius 45.4701
lwrist 15.2201
lhand -11.4897 -26.1293
lfingers 7.12502
lthumb 14.5487 3.34053
rfemur 24.4715 2.04523 19.4374
rtibia -10.0958
rfoot -18.3013 -14.539
rtoes 1.52002
lfemur 29.4783 -13.4924 -15.123
ltibia -17.1053
lfoot -8.04761 16.5761
ltoes -18.7351
851
root -1.00704 17.8356 6.5604 -7.02137 -5.07775 -3.83733
lowerback 5.27812 1.23341 1.3222
upperback -2.27916 1.83224 1.70855
thorax -5.34126 0.892365 0.851063
lowerneck -11.539 -0.724848 1.12073
upperneck 24.9605 -1.42544 0.518559
head 9.79985 -0.50213 -0.178041
rclavicle 5.65294e-015 8.00108e-015
rhumerus -57.5309 -12.7653 -69.1871
rradius 44.226
rwrist 6.48942
rhand -8.14216 -24.8175
rfingers 7.12502
rthumb 17.7721 -54.0254
lclavicle 5.65294e-015 8.00108e-015
lhumerus -52.9247 14.2174 72.9061
lradius 45.5319
lwrist 15.1174
lhand -11.6605 -25.8697
lfingers 7.12502
lthumb 14.3841 3.61192
rfemur 24.2126 2.0755 19.6519
rtibia -9.82845
rfoot -18.4268 -14.4469
rtoes 1.72693
lfemur 29.4388 -13.5457 -14.9141
ltibia -17.2156
lfoot -7.95636 16.7073
ltoes -18.7465
852
root -1.00659 17.8404 6.56213 -6.96139 -5.09761 -3.91458
lowerback 5.34569 1.22497 1.3951
upperback -2.30109 1.8304 1.74126
thorax -5.40171 0.889153 0.842716
lowerneck -11.5578 -0.675308 1.19223
upperneck 24.9161 -1.34347 0.413614
head 9.78641 -0.469436 -0.217103
rclavicle -5.01931e-015 -2.57178e-014
rhumerus -57.3067 -13.1412 -68.3188
rradius 44.2669
rwrist 6.23271
rhand -9.37528 -25.5169
rfingers 7.12502
rthumb 16.5852 -54.8282
lclavicle -5.01931e-015 -2.57178e-014
lhumerus -52.7909 14.4407 72.2633
lradius 45.6758
lwrist 15.1131
lhand -11.8022 -25.6859
lfingers 7.12502
lthumb 14.2476 3.80542
rfemur 23.9901 2.08603 19.7278
rtibia -9.50702
rfoot -18.4598 -14.3384
rtoes 2.55377
lfemur 29.4406 -13.575 -14.842
ltibia -17.3393
lfoot -7.81604 16.8358
ltoes -18.8788
853
root -1.00576 17.8429 6.56535 -6.9186 -5.0883 -3.90939
lowerback 5.35672 1.23284 1.40697
upperback -2.2948 1.84189 1.74006
thorax -5.40108 0.894399 0.833499
lowerneck -11.5323 -0.702591 1.11457
upperneck 24.8182 -1.37655 0.466722
head 9.74739 -0.48698 -0.188841
rclavicle -6.09399e-015 -3.47873e-015
rhumerus -57.1114 -13.6307 -67.5022
rradius 44.3561
rwrist 5.65043
rhand -10.4735 -25.9365
rfingers 7.12502
rthumb 15.5277 -55.333
lclavicle -6.09399e-015 -3.47873e-015
lhumerus -52.6035 14.6012 71.7861
lradius 45.7794
lwrist 15.1526
lhand -12.0094 -25.7462
lfingers 7.12502
lthumb 14.048 3.75906
rfemur 23.8159 2.08359 19.7058
rtibia -9.23317
rfoot -18.3401 -14.282
rtoes 3.94722
lfemur 29.4273 -13.5771 -14.8626
ltibia -17.4277
lfoot -7.62808 16.9285
ltoes -19.4105
854
root -1.00508 17.846 6.56858 -6.84188 -5.0856 -3.89331
lowerback 5.30543 1.26184 1.43365
upperback -2.29198 1.87958 1.70846
thorax -5.36712 0.911714 0.783177
lowerneck -11.4047 -0.753585 1.04258
upperneck 24.6016 -1.45286 0.566428
head 9.6471 -0.520229 -0.149523
rclavicle 5.7337e-015 1.87355e-014
rhumerus -56.9675 -14.2191 -66.732
rradius 44.4139
rwrist 4.76469
rhand -10.5767 -26.7859
rfingers 7.12502
rthumb 15.4283 -56.1901
lclavicle 5.7337e-015 1.87355e-014
lhumerus -52.3864 14.659 71.444
lradius 45.8747
lwrist 15.2345
lhand -12.2828 -25.8393
lfingers 7.12502
lthumb 13.7845 3.68407
rfemur 23.6691 2.08235 19.6869
rtibia -9.10081
rfoot -18.3791 -14.2881
rtoes 4.08566
lfemur 29.3522 -13.5869 -14.8861
ltibia -17.4465
lfoot -7.51443 16.9805
ltoes -20.0366
855
root -1.00568 17.8483 6.57158 -6.77271 -5.09257 -3.89539
lowerback 5.26622 1.29479 1.45632
upperback -2.27766 1.92231 1.67769
thorax -5.3281 0.93174 0.735393
lowerneck -11.3343 -0.773095 1.08226
upperneck 24.4177 -1.47735 0.537235
head 9.56783 -0.532975 -0.16825
rclavicle -4.65094e-014 -3.97569e-015
rhumerus -56.8491 -14.8084 -66.0566
rradius 44.466
rwrist 3.71615
rhand -10.0736 -28.1191
rfingers 7.12502
rthumb 15.9127 -57.4854
lclavicle -4.65094e-014 -3.97569e-015
lhumerus -52.1326 14.7261 71.1903
lradius 45.961
lwrist 15.2844
lhand -12.5074 -25.9305
lfingers 7.12502
lthumb 13.568 3.60742
rfemur 23.5923 2.0822 19.7016
rtibia -9.09355
rfoot -18.4625 -14.3232
rtoes 3.54399
lfemur 29.2739 -13.6469 -14.8968
ltibia -17.4095
lfoot -7.53034 17.045
ltoes -20.2923
856
root -1.0078 17.8485 6.57389 -6.71642 -5.09646 -3.88502
lowerback 5.25416 1.31942 1.41696
upperback -2.26553 1.95098 1.66356
thorax -5.30938 0.947166 0.740376
lowerneck -11.3702 -0.746313 1.25791
upperneck 24.4048 -1.42119 0.313648
head 9.56693 -0.515373 -0.269114
rclavicle 1.11195e-014 -1.48095e-014
rhumerus -56.7395 -15.27 -65.5614
rradius 44.5523
rwrist 2.5022
rhand -10.1637 -29.1
rfingers 7.12502
rthumb 15.826 -58.4731
lclavicle 1.11195e-014 -1.48095e-014
lhumerus -51.9069 14.7062 71.1011
lradius 46.0914
lwrist 15.4198
lhand -12.7089 -25.903
lfingers 7.12502
lthumb 13.3738 3.64782
rfemur 23.5634 2.08294 19.6988
rtibia -9.14799
rfoot -18.4095 -14.3443
rtoes 3.51054
lfemur 29.2023 -13.7472 -14.9288
ltibia -17.3465
lfoot -7.61991 17.1219
ltoes -20.1441
857
root -1.01031 17.8485 6.57652 -6.66542 -5.09071 -3.8377
lowerback 5.26045 1.33367 1.31602
upperback -2.26902 1.96241 1.65566
thorax -5.3197 0.956134 0.787399
lowerneck -11.3769 -0.745548 1.25483
upperneck 24.3792 -1.40369 0.253514
head 9.55862 -0.514322 -0.287318
rclavicle -2.4699e-014 -2.05742e-014
rhumerus -56.6253 -15.6613 -65.1879
rradius 44.5621
rwrist 1.22191
rhand -10.8453 -29.3962
rfingers 7.12502
rthumb 15.1695 -58.8202
lclavicle -2.4699e-014 -2.05742e-014
lhumerus -51.7913 14.5623 71.1725
lradius 46.3081
lwrist 15.6601
lhand -12.8384 -25.7852
lfingers 7.12502
lthumb 13.2489 3.77374
rfemur 23.5561 2.08357 19.6467
rtibia -9.23127
rfoot -18.5656 -14.2957
rtoes 3.03824
lfemur 29.1337 -13.8962 -15.0216
ltibia -17.2729
lfoot -7.70529 17.2473
ltoes -19.9009
858
root -1.01225 17.849 6.57982 -6.61851 -5.07057 -3.79289
lowerback 5.25106 1.34762 1.22934
upperback -2.25265 1.97365 1.64768
thorax -5.29984 0.964678 0.826949
lowerneck -11.3777 -0.791472 1.07235
upperneck 24.2833 -1.46314 0.395776
head 9.52716 -0.543728 -0.213625
rclavicle 1.19395e-014 2.5345e-015
rhumerus -56.4841 -15.9786 -64.9595
rradius 44.5145
rwrist -0.0102676
rhand -11.5613 -29.2774
rfingers 7.12502
rthumb 14.4797 -58.7522
lclavicle 1.19395e-014 2.5345e-015
lhumerus -51.6931 14.4125 71.3414
lradius 46.5123
lwrist 15.8026
lhand -12.8229 -25.8583
lfingers 7.12502
lthumb 13.2639 3.69968
rfemur 23.5604 2.069 19.5968
rtibia -9.32315
rfoot -18.7285 -14.2695
rtoes 2.39953
lfemur 29.0601 -14.0126 -15.1026
ltibia -17.1972
lfoot -7.75222 17.3464
ltoes -19.7476
859
root -1.01393 17.8502 6.58261 -6.56344 -5.03491 -3.78267
lowerback 5.21825 1.35731 1.19675
upperback -2.22367 1.98226 1.63835
thorax -5.25158 0.970159 0.835782
lowerneck -11.4227 -0.809788 0.94894
upperneck 24.2489 -1.49364 0.521656
head 9.52561 -0.555291 -0.152814
rclavicle -1.86361e-015 1.39646e-014
rhumerus -56.3351 -16.1831 -64.902
rradius 44.4963
rwrist -0.833135
rhand -11.8103 -29.3182
rfingers 7.12502
rthumb 14.2398 -58.8101
lclavicle -1.86361e-015 1.39646e-014
lhumerus -51.551 14.2382 71.5964
lradius 46.6558
lwrist 15.8105
lhand -12.7815 -25.9173
lfingers 7.12502
lthumb 13.3038 3.63805
rfemur 23.5575 2.03338 19.5828
rtibia -9.40585
rfoot -18.7021 -14.3069
rtoes 1.99598
lfemur 28.9555 -13.9726 -15.0785
ltibia -17.1267
lfoot -7.77349 17.2923
ltoes -19.6497
